<svg id="Capa_2" data-name="Capa 2" xmlns="http://www.w3.org/2000/svg" viewBox="0 0 362.4 1012.86"><defs><style>.cls-1{fill:#1d314c;}</style></defs><path class="cls-1" d="M132.43,984.07l-1.26,8.84a9.9,9.9,0,0,0,5.39,10.29c14.13,7,51.8,19.42,112.63-3.68,0,0,3,10,17,8l35.21-11.83s13.34-4.4,6.07-28.79c0,0,1.88-17.53-.93-25.17a6.24,6.24,0,0,1,.6-5.49c.84-1.34,1.3-3.39.33-6.48-1.64-5.21-2.1-9.26-4.09-14.11a3.77,3.77,0,0,1,3.92-5.2c9.31,1.12,26,2.75,38.89,2.07,19-1,16-21,16-21l.18-39.14s-1-18.19-8.75-23.66a6.2,6.2,0,0,1-2.63-4.64c-.48-6.85-2-21.56-5.8-21.56-5,0-8-20-9-31s-12-51-12-51l-4-6-2.93-17.45s4.93-13.55-1.07-15.55c0,0,2.72-16.79-4.83-24a7.92,7.92,0,0,1-2.27-7.85,367.83,367.83,0,0,0,13.1-96.12s6.25-6.24,5.26-24.63a9.18,9.18,0,0,1,2-6.23l1.71-2.14V496.41a8.73,8.73,0,0,1,.78-3.6l4.22-9.29s2-29-9-51c0,0-5-3-3-40,1.68-31.07-5.1-69.9-7.32-81.55a16.63,16.63,0,0,0-2.64-6.32c-5.9-8.54-24.4-34.9-46.43-61.94A21.84,21.84,0,0,1,264.1,236c-3.25-9.55-14.1-37.23-39.88-69.45,0,0-19-16-38-26-17.24-9.07-13.07-16.5-24.86-17.8a2.62,2.62,0,0,1-2.09-3.73,28.85,28.85,0,0,0,.95-23.47c-6-15-19-40-23-46s-36-47-63-48c0,0-5,0-7-1s-6-1-13,4c0,0-2,4-10,4s-23,15-27,20-9,7-9,25-2,20-2,20l-6,59s-3,18,13,24c9.7,3.64,19.39,9.84,25.53,14.17a10,10,0,0,1,3.71,11.22c-2,6.12-4,16.79-2.24,32.61,0,0-7,8-7,39,0,0-6,27-13,59s5,49,5,49,4,6,0,14-5,13,2,23,5,13,5,13-1,5,1,5,2,3,2,3-3,23,6,27c0,0-7,0-7,12v24s-2,11,21,31c0,0,2,3,10,0,0,0-1,9,4,8,0,0,5,1,5-2,0,0,3,4,9,0s26-11,30-8l44,4-15.5,248.69L181.2,769l23.57,49.51a8.91,8.91,0,0,1,.54,6.22c-2.07,7.42-6.87,26.23-6.09,38.84,1,16-15,18,3,41,0,0,9,9-1,10-6.63.67-.94,8.38,3.64,13.49a6.62,6.62,0,0,1-.23,9.11l-3.41,3.4s-14.58,9.11-18.88,16.11a7.58,7.58,0,0,1-5,3.55c-7.87,1.55-26.06,5.6-36.71,11.66A16.77,16.77,0,0,0,132.43,984.07Z"/></svg>