<svg xmlns="http://www.w3.org/2000/svg" viewBox="0 0 206.65 625.42"><defs><style>.cls-1{fill:#eecb57;}</style></defs><g id="Capa_1" data-name="Capa 1"><path class="cls-1" d="M17,388.23a.8.8,0,0,1,0-.15L20,352.16a1.1,1.1,0,0,1,1.08-1h2a1.08,1.08,0,0,0,1.09-1L26,321.46a1.08,1.08,0,0,0-.11-.56l-.75-1.51a1,1,0,0,1-.12-.48v-6.12a1.09,1.09,0,0,1,1.86-.77h0a1,1,0,0,0,1.59-.41l1.33-4.68a1.1,1.1,0,0,0-.44-1.21l-1.85-1.23a1.07,1.07,0,0,1-.49-.91v-7.12a1,1,0,0,1,1.63-.67h0a1,1,0,0,0,1.61-.56l.68-5.4a1.09,1.09,0,0,0-.47-1l-.8-.54a1.1,1.1,0,0,1-.48-1l.66-7.22a.66.66,0,0,1,1.21-.31l.16.24a.66.66,0,0,0,1.19-.18l1-3.39a1.1,1.1,0,0,0-.26-1l-1.74-1.83a1.06,1.06,0,0,1-.29-.85l.78-8.64a.66.66,0,0,1,1.21-.31h0a.66.66,0,0,0,1.21-.27l.67-4.69a.67.67,0,0,0-.5-.74l-.42-.1a.67.67,0,0,1-.5-.64v-9.34a.66.66,0,0,1,1-.58l.63.33a.66.66,0,0,0,1-.54L37,233.87a.66.66,0,0,0-.66-.71h-.63a.67.67,0,0,0-.66.67V240A1.07,1.07,0,0,1,33.86,241L26,240.26a1.08,1.08,0,0,1-1-1.08v-6.93A1.09,1.09,0,0,0,24,231.16H23.3a1.09,1.09,0,0,1-1.08-1.23L26,202.39a1.08,1.08,0,0,0,0-.44l-6.77-24.2a1.12,1.12,0,0,0-.76-.75c-9.58-2.74-10.34-6.23-10.4-6.76a.62.62,0,0,1,0-.13L10,135.17A1.12,1.12,0,0,0,9.12,134c-7.86-1.49-7.58-10-7.57-10.34v0C4.93,88.22,9.73,81.27,11.14,80a1.13,1.13,0,0,0,.32-1c-1.32-9.69,2.6-11.15,4.32-11.33a1,1,0,0,0,.85-.88c.51-5.33,3.31-33.67,6.92-48.13C27.34,3.5,42.81,2.71,44.42,2.67a1.18,1.18,0,0,0,.27-.06C51.42.13,56,1.18,57.22,1.55a.91.91,0,0,0,.67-.05A18.11,18.11,0,0,1,69.67.59a1,1,0,0,0,.34,0C78-.16,81.07.85,82,1.31a1.09,1.09,0,0,0,.85,0,12.27,12.27,0,0,1,8.91.35.89.89,0,0,0,.46.07c6.41-.58,8.27.09,8.8.55a.9.9,0,0,0,.88.14c4.31-1.33,6.67-.33,7.38.07a1.08,1.08,0,0,0,.55.15c7.27,0,9.08,1.15,9.53,1.7a1,1,0,0,0,.61.36l5.83,1.08a10.88,10.88,0,0,0,8.45-2l0,0a.57.57,0,0,1,.49-.08L147.33,7.6a.73.73,0,0,0,.44,0C156.6,4.7,159.35,7,164.55,8.66c3.8,1.19,12.67-.92,14.89,2.79a.52.52,0,0,0,.35.26l11.29,2a20.74,20.74,0,0,1,15.37,22.79A50,50,0,0,1,203,48.57c-7.33,17.76-16.62,39.7-11.52,46.27a8.22,8.22,0,0,1,1.61,7.22l-11.27,40.62a23,23,0,0,1-2.84,3.68l-16.2,17.11a1,1,0,0,0-.26.45c-.37,1.33-2.15,7.85-3.93,16.74-1.69,8.46-8.39,9.05-10.42,9a1.09,1.09,0,0,0-.92.51l-16.52,26.24a1.09,1.09,0,0,0-.16.49l-2,25.73a1.09,1.09,0,0,1-1.09,1H113.47a1.09,1.09,0,0,0-1.07.91l-1.73,10.24a.67.67,0,0,0,.66.77h.56a.67.67,0,0,1,.66.66v5.88a1.1,1.1,0,0,1-.43.87l-3.23,2.42a1.07,1.07,0,0,0-.42.67l-1,5.59a1,1,0,0,0,.94,1.13h.22a.94.94,0,0,1,1,.95v5.83a1.08,1.08,0,0,1-1.09,1.08H106.6a1.09,1.09,0,0,0-1.09,1l-.22,5.85a1.1,1.1,0,0,0,1.09,1.13h2.08a1.08,1.08,0,0,1,1.09,1.08v4.37a1.09,1.09,0,0,1-.41.85l-4.26,3.41a1.14,1.14,0,0,0-.4.67l-.69,4.13a1.09,1.09,0,0,0,1.23,1.26l.29,0a1.08,1.08,0,0,1,1.24,1.07V310a1.08,1.08,0,0,1-.6,1l-2.87,1.44a1.08,1.08,0,0,0-.59.85l-.75,6.67a1.09,1.09,0,0,0,1.08,1.21h.64a1.08,1.08,0,0,1,1.09,1.08v4.87a1.09,1.09,0,0,1-.48.91L102,329.37a1.08,1.08,0,0,0-.48.82l-5,57.39a.43.43,0,0,0,0,.16c.07,1,.78,12-3.56,13.92-3.79,1.67-14.07.56-17.39.14a1.09,1.09,0,0,0-1.21.93L68,446.44a9.55,9.55,0,0,1-2.39,5.05c-2.26,2.48-5.19,7.06-1.08,11.17,3.44,3.45,3.59,6.23,3.1,8a4.64,4.64,0,0,0,.81,4.09c5.09,6.77,4.38,17.95,4.14,20.43a5.83,5.83,0,0,1-.16.93c-1.3,5.21-14,56.24-16.89,68.57-2.39,10.35-8.58,11.2-11,11.11a1.08,1.08,0,0,0-1.12,1l-3,25.63a11.42,11.42,0,0,1-1.92,5.14L26.56,625a1.09,1.09,0,0,1-2-.43L21.08,604.3a1.27,1.27,0,0,1,0-.28l2.54-29.61a5,5,0,0,0-4.38-5.33c-9.17-1.13-9.17-7.92-9.17-7.92L11,508.09a6.3,6.3,0,0,0-3-5.48A16.2,16.2,0,0,1,.05,488.16c-.73-16.91,6.64-24.09,10.6-26.71a8.88,8.88,0,0,0,3.08-3.52c1.95-3.92,7.34-6.34,11.18-7.62a8,8,0,0,0,4.52-4.63c.79-2.49.85-3.88.64-4.66a35.16,35.16,0,0,1-.91-9.38c.54-37.12-4.2-36.43-4.2-36.43S16.51,394.79,17,388.23Z"/></g></svg>